<svg width="40" height="40" viewBox="0 0 40 40" fill="none" xmlns="http://www.w3.org/2000/svg">
<rect width="40" height="40" rx="20" fill="#2E2E74"/>
<path d="M26.4699 24.83L26.8599 27.99C26.9599 28.82 26.0699 29.4 25.3599 28.97L21.8999 26.91C21.6599 26.77 21.5999 26.47 21.7299 26.23C22.2299 25.31 22.4999 24.27 22.4999 23.23C22.4999 19.57 19.3599 16.59 15.4999 16.59C14.7099 16.59 13.9399 16.71 13.2199 16.95C12.8499 17.07 12.4899 16.73 12.5799 16.35C13.4899 12.71 16.9899 10 21.1699 10C26.0499 10 29.9999 13.69 29.9999 18.24C29.9999 20.94 28.6099 23.33 26.4699 24.83Z" fill="white"/>
<path d="M21 23.2298C21 24.4198 20.56 25.5198 19.82 26.3898C18.83 27.5898 17.26 28.3598 15.5 28.3598L12.89 29.9098C12.45 30.1798 11.89 29.8098 11.95 29.2998L12.2 27.3298C10.86 26.3998 10 24.9098 10 23.2298C10 21.4698 10.94 19.9198 12.38 18.9998C13.27 18.4198 14.34 18.0898 15.5 18.0898C18.54 18.0898 21 20.3898 21 23.2298Z" fill="white"/>
</svg>
